<svg version="1.1" width='1.2rem' height='1.2rem' fill='#1c1929' id="Capa_1" xmlns="http://www.w3.org/2000/svg" xmlns:xlink="http://www.w3.org/1999/xlink" x="0px" y="0px"
	 viewBox="0 0 352.015 352.015" style="enable-background:new 0 0 352.015 352.015;" xml:space="preserve">
<path d="M350.961,130.905c-1.68-3.026-5.09-4.829-9.356-4.829h-35.881c-20.072-52-70.526-88.794-129.451-88.794
	c-67.517,0-123.913,48.52-136.222,112.499L1.929,210.979c-2.23,3.58-2.542,7.317-0.854,10.357c1.693,3.05,5.097,4.739,9.339,4.739
	h36.511c20.142,52,70.525,88.659,129.348,88.659c67.892,0,124.543-48.991,136.427-113.498l37.39-59.997
	C352.308,137.68,352.625,133.902,350.961,130.905z M176.273,274.734c-36.147,0-67.814-19.659-85.016-48.659h23.965
	c4.322,0,7.698-1.7,9.26-4.784c1.558-3.074,0.993-6.793-1.551-10.262l-42.642-58.1c10.438-43.316,49.509-75.658,95.984-75.658
	c36.26,0,68.011,19.803,85.177,48.803h-24.653c-4.345,0-7.725,1.821-9.273,4.877c-1.537,3.032-0.967,6.784,1.566,10.238
	l43.02,58.564C261.456,242.768,222.532,274.734,176.273,274.734z"/>
</svg>
